<?xml version="1.0" standalone="no"?>
<!DOCTYPE svg PUBLIC "-//W3C//DTD SVG 20010904//EN"
 "http://www.w3.org/TR/2001/REC-SVG-20010904/DTD/svg10.dtd">
<svg version="1.0" xmlns="http://www.w3.org/2000/svg"
 width="200.000000pt" height="200.000000pt" viewBox="0 0 200.000000 200.000000"
 preserveAspectRatio="xMidYMid meet">
<metadata>
Created by potrace 1.14, written by Peter Selinger 2001-2017
</metadata>
<g transform="translate(0.000000,200.000000) scale(0.100000,-0.100000)"
fill="#000000" stroke="none">
<path d="M0 1000 l0 -1000 1000 0 1000 0 0 1000 0 1000 -1000 0 -1000 0 0
-1000z m1098 715 c181 -43 325 -190 363 -372 14 -69 7 -185 -15 -236 -27 -65
-96 -73 -139 -15 -17 23 -18 31 -7 84 32 151 -41 297 -180 363 -80 37 -183 36
-262 -2 -115 -57 -183 -168 -182 -297 2 -155 125 -288 281 -306 82 -9 92 -13
109 -45 32 -63 -7 -119 -84 -119 -118 0 -253 61 -337 151 -180 195 -176 482
10 665 123 121 281 167 443 129z m185 -686 c39 -20 57 -51 57 -101 0 -39 -5
-52 -31 -77 -24 -24 -39 -31 -69 -31 -78 0 -120 41 -120 116 0 51 53 104 105
104 20 0 46 -5 58 -11z m-763 -497 c48 -24 73 -74 66 -136 -3 -26 -11 -55 -17
-63 -10 -11 -8 -17 9 -29 12 -8 22 -19 22 -25 0 -11 -67 -12 -74 0 -3 4 -23 4
-44 -2 -56 -15 -110 -1 -149 38 -30 30 -33 38 -33 93 0 46 5 66 22 87 42 54
131 71 198 37z m605 4 c49 -21 70 -59 69 -127 -1 -68 -21 -105 -69 -125 -79
-33 -176 -7 -208 56 -23 44 -18 121 10 158 35 48 130 66 198 38z m-255 -16 c0
-18 -7 -20 -84 -20 -87 0 -115 -12 -102 -45 4 -11 21 -15 65 -15 96 0 140 -26
141 -81 0 -15 -9 -38 -21 -53 -20 -25 -23 -26 -135 -26 -112 0 -114 0 -114 23
0 21 3 22 77 19 90 -4 127 12 107 45 -9 14 -28 19 -87 23 -55 4 -81 10 -96 24
-29 26 -27 71 4 101 23 24 31 25 135 25 103 0 110 -1 110 -20z m850 0 c0 -17
-7 -20 -50 -20 l-50 0 0 -110 0 -110 -30 0 -30 0 0 110 0 110 -120 0 c-107 0
-122 -2 -140 -20 -41 -41 -28 -50 70 -50 83 0 90 -1 90 -20 0 -19 -7 -20 -90
-20 l-90 0 0 -55 0 -55 -36 0 -36 0 4 99 c3 104 15 132 63 152 11 4 116 8 233
8 206 1 212 0 212 -19z"/>
<path d="M390 480 c-15 -15 -20 -33 -20 -69 0 -42 4 -53 26 -70 57 -45 124 -7
124 69 0 76 -81 119 -130 70z"/>
<path d="M995 475 c-53 -52 -18 -155 52 -155 62 0 95 57 73 125 -20 59 -82 74
-125 30z"/>
</g>
</svg>
